<svg height="303.2" viewBox="0 0 245 303.2" width="245"
    xmlns="http://www.w3.org/2000/svg" xmlns:xlink="http://www.w3.org/1999/xlink">
    <linearGradient id="a" gradientUnits="userSpaceOnUse" x1="34.52" x2="3.16" y1=".67"
        y2="45.450001">
        <stop offset="0" stop-color="#800600" />
        <stop offset=".6" stop-color="#c72127" />
        <stop offset=".73" stop-color="#c13959" />
        <stop offset=".85" stop-color="#bc4b81" />
        <stop offset=".94" stop-color="#b95799" />
        <stop offset="1" stop-color="#b85ba2" />
    </linearGradient>
    <linearGradient id="b" gradientUnits="userSpaceOnUse" x1="18.5" x2="59.439999" y1="55.630001"
        y2="55.630001">
        <stop offset="0" stop-color="#f32b44" />
        <stop offset=".6" stop-color="#a4070a" />
    </linearGradient>
    <linearGradient id="c">
        <stop offset="0" stop-opacity=".4" />
        <stop offset="1" stop-opacity="0" />
    </linearGradient>
    <linearGradient id="d" gradientUnits="userSpaceOnUse" x1="35.16" x2="28.52" xlink:href="#c"
        y1="-.24" y2="9.24" />
    <linearGradient id="e" gradientUnits="userSpaceOnUse" x1="46.32" x2="27.99" xlink:href="#c"
        y1="56.549999" y2="54.950001" />
    <linearGradient id="f" gradientUnits="userSpaceOnUse" x1="45.200001" x2="45.200001" y1="-1.42"
        y2="57.799999">
        <stop offset="0" stop-color="#ffb900" />
        <stop offset=".17" stop-color="#ef8400" />
        <stop offset=".31" stop-color="#e25c01" />
        <stop offset=".43" stop-color="#db4401" />
        <stop offset=".5" stop-color="#d83b01" />
    </linearGradient>
  
    <g transform="matrix(5.01234486942 0 0 5.01234486942 -40.09870799869 -8.82148777268)">
        <path
            d="m34.41 2 4.59 10.5v36.5l-4.52 13 17.09-4.87a6.12 6.12 0 0 0 4.43-5.87v-38.52a6.11 6.11 0 0 0 -4.44-5.88z"
            fill="url(#f)" />
        <path
            d="m12.74 48.61 5-2.7a4.36 4.36 0 0 0 2.26-3.83v-19.65a4.37 4.37 0 0 1 2.87-4.1l16.13-5.83v-4.43a6.32 6.32 0 0 0 -4.59-6.07 6.18 6.18 0 0 0 -1.73-.24 6.41 6.41 0 0 0 -3.14.83l-18.46 10.53a6.1 6.1 0 0 0 -3.08 5.3v27.36a3.21 3.21 0 0 0 4.74 2.83z"
            fill="url(#a)" />
        <path
            d="m12.74 48.61 5-2.7a4.36 4.36 0 0 0 2.26-3.83v-19.65a4.37 4.37 0 0 1 2.87-4.1l16.13-5.83v-4.43a6.32 6.32 0 0 0 -4.59-6.07 6.18 6.18 0 0 0 -1.73-.24 6.41 6.41 0 0 0 -3.14.83l-18.46 10.53a6.1 6.1 0 0 0 -3.08 5.3v27.36a3.21 3.21 0 0 0 4.74 2.83z"
            fill="url(#d)" />
        <path
            d="m39 49h-19.07a3.22 3.22 0 0 0 -1.59 6l11.36 6.44a6.2 6.2 0 0 0 3.07.81 6 6 0 0 0 1.71-.25 6.22 6.22 0 0 0 4.52-6z"
            fill="url(#b)" />
        <path
            d="m39 49h-19.07a3.22 3.22 0 0 0 -1.59 6l11.36 6.44a6.2 6.2 0 0 0 3.07.81 6 6 0 0 0 1.71-.25 6.22 6.22 0 0 0 4.52-6z"
            fill="url(#e)" />
    </g>
</svg>